<?xml version="1.0" encoding="UTF-8" standalone="no"?>
<!DOCTYPE svg PUBLIC "-//W3C//DTD SVG 1.1//EN"
 "http://www.w3.org/Graphics/SVG/1.1/DTD/svg11.dtd">
<!-- Generated by graphviz version 2.48.0 (20210717.1556)
 -->
<!-- Title: G Pages: 1 -->
<svg width="494pt" height="428pt"
 viewBox="0.00 0.00 494.28 427.82" xmlns="http://www.w3.org/2000/svg" xmlns:xlink="http://www.w3.org/1999/xlink">
<g id="graph0" class="graph" transform="scale(1 1) rotate(0) translate(4 423.82)">
<title>G</title><style>.edge>path:hover{stroke-width:8}</style>
<polygon fill="white" stroke="transparent" points="-4,4 -4,-423.82 490.28,-423.82 490.28,4 -4,4"/>
<!-- api_gateway_ctx -->
<g id="node1" class="node">
<title>api_gateway_ctx</title><style>.edge>path:hover{stroke-width:8}</style>
<ellipse fill="#813737" stroke="black" cx="200.2" cy="-28.99" rx="39.7" ry="28.98"/>
<text text-anchor="middle" x="200.2" y="-37.49" font-family="Helvetica,sans-Serif" font-size="10.00" fill="#ffffff">api.</text>
<text text-anchor="middle" x="200.2" y="-26.49" font-family="Helvetica,sans-Serif" font-size="10.00" fill="#ffffff">gateway.</text>
<text text-anchor="middle" x="200.2" y="-15.49" font-family="Helvetica,sans-Serif" font-size="10.00" fill="#ffffff">ctx</text>
</g>
<!-- api_main -->
<g id="node2" class="node">
<title>api_main</title><style>.edge>path:hover{stroke-width:8}</style>
<ellipse fill="#b34c4c" stroke="black" cx="292.2" cy="-283.18" rx="31.4" ry="18"/>
<text text-anchor="middle" x="292.2" y="-280.68" font-family="Helvetica,sans-Serif" font-size="10.00" fill="#ffffff">api.main</text>
</g>
<!-- asyncpg -->
<g id="node3" class="node">
<title>asyncpg</title><style>.edge>path:hover{stroke-width:8}</style>
<ellipse fill="#b6b653" stroke="black" cx="31.2" cy="-196.97" rx="31.4" ry="18"/>
<text text-anchor="middle" x="31.2" y="-194.47" font-family="Helvetica,sans-Serif" font-size="10.00" fill="#000000">asyncpg</text>
</g>
<!-- asyncpg&#45;&gt;api_gateway_ctx -->
<g id="edge1" class="edge">
<title>asyncpg&#45;&gt;api_gateway_ctx</title><style>.edge>path:hover{stroke-width:8}</style>
<path fill="none" stroke="black" d="M50.27,-182.5C58.05,-177.44 67.29,-171.96 76.2,-167.98 128.61,-144.61 206.17,-189.06 200.2,-131.98"/>
<path fill="none" stroke="black" d="M200.2,-130.98C198.04,-110.38 197.88,-87.29 198.32,-68.39"/>
<polygon fill="#b6b653" stroke="black" points="201.82,-68.47 198.63,-58.37 194.83,-68.26 201.82,-68.47"/>
</g>
<!-- fastapi -->
<g id="node4" class="node">
<title>fastapi</title><style>.edge>path:hover{stroke-width:8}</style>
<ellipse fill="#3db83d" stroke="black" cx="145.2" cy="-196.97" rx="27" ry="18"/>
<text text-anchor="middle" x="145.2" y="-194.47" font-family="Helvetica,sans-Serif" font-size="10.00" fill="#000000">fastapi</text>
</g>
<!-- fastapi&#45;&gt;api_gateway_ctx -->
<g id="edge2" class="edge">
<title>fastapi&#45;&gt;api_gateway_ctx</title><style>.edge>path:hover{stroke-width:8}</style>
<path fill="none" stroke="black" d="M165.23,-184.5C181.9,-173.26 202.56,-154.57 200.2,-131.98"/>
</g>
<!-- fastapi_applications -->
<g id="node5" class="node">
<title>fastapi_applications</title><style>.edge>path:hover{stroke-width:8}</style>
<ellipse fill="#3ab03a" stroke="black" cx="124.2" cy="-283.18" rx="48.17" ry="21.43"/>
<text text-anchor="middle" x="124.2" y="-286.18" font-family="Helvetica,sans-Serif" font-size="10.00" fill="#ffffff">fastapi.</text>
<text text-anchor="middle" x="124.2" y="-275.18" font-family="Helvetica,sans-Serif" font-size="10.00" fill="#ffffff">applications</text>
</g>
<!-- fastapi_applications&#45;&gt;api_gateway_ctx -->
<g id="edge3" class="edge">
<title>fastapi_applications&#45;&gt;api_gateway_ctx</title><style>.edge>path:hover{stroke-width:8}</style>
<path fill="none" stroke="black" d="M150.16,-265.09C169.73,-250.18 194.19,-226.49 200.2,-197.97"/>
<path fill="none" stroke="black" d="M200.2,-195.97C206.06,-168.14 203.92,-160.18 200.2,-131.98"/>
</g>
<!-- fastapi_applications&#45;&gt;fastapi -->
<g id="edge4" class="edge">
<title>fastapi_applications&#45;&gt;fastapi</title><style>.edge>path:hover{stroke-width:8}</style>
<path fill="none" stroke="black" d="M129.28,-261.8C132.06,-250.65 135.54,-236.71 138.53,-224.71"/>
<polygon fill="#3ab03a" stroke="black" points="141.99,-225.32 141.01,-214.77 135.19,-223.63 141.99,-225.32"/>
</g>
<!-- passlib -->
<g id="node6" class="node">
<title>passlib</title><style>.edge>path:hover{stroke-width:8}</style>
<ellipse fill="#47c2c2" stroke="black" cx="256.2" cy="-196.97" rx="27.84" ry="18"/>
<text text-anchor="middle" x="256.2" y="-194.47" font-family="Helvetica,sans-Serif" font-size="10.00" fill="#000000">passlib</text>
</g>
<!-- passlib&#45;&gt;api_gateway_ctx -->
<g id="edge5" class="edge">
<title>passlib&#45;&gt;api_gateway_ctx</title><style>.edge>path:hover{stroke-width:8}</style>
<path fill="none" stroke="black" d="M237.14,-183.92C221.84,-172.68 202.53,-154.3 200.2,-131.98"/>
</g>
<!-- passlib_context -->
<g id="node7" class="node">
<title>passlib_context</title><style>.edge>path:hover{stroke-width:8}</style>
<ellipse fill="#4cb3b3" stroke="black" cx="337.2" cy="-196.97" rx="35.21" ry="21.43"/>
<text text-anchor="middle" x="337.2" y="-199.97" font-family="Helvetica,sans-Serif" font-size="10.00" fill="#000000">passlib.</text>
<text text-anchor="middle" x="337.2" y="-188.97" font-family="Helvetica,sans-Serif" font-size="10.00" fill="#000000">context</text>
</g>
<!-- passlib_context&#45;&gt;api_gateway_ctx -->
<g id="edge6" class="edge">
<title>passlib_context&#45;&gt;api_gateway_ctx</title><style>.edge>path:hover{stroke-width:8}</style>
<path fill="none" stroke="black" d="M314.41,-180.27C307.73,-176.01 300.31,-171.58 293.2,-167.98 253.64,-147.99 204.81,-176.06 200.2,-131.98"/>
</g>
<!-- starlette -->
<g id="node8" class="node">
<title>starlette</title><style>.edge>path:hover{stroke-width:8}</style>
<ellipse fill="#2f2fdb" stroke="black" cx="48.2" cy="-398.61" rx="30.72" ry="18"/>
<text text-anchor="middle" x="48.2" y="-396.11" font-family="Helvetica,sans-Serif" font-size="10.00" fill="#ffffff">starlette</text>
</g>
<!-- starlette&#45;&gt;api_gateway_ctx -->
<g id="edge7" class="edge">
<title>starlette&#45;&gt;api_gateway_ctx</title><style>.edge>path:hover{stroke-width:8}</style>
<path fill="none" stroke="black" d="M48.2,-340.39C55.37,-316.46 39.88,-307.74 48.2,-284.18"/>
<path fill="none" stroke="black" d="M45.69,-380.51C44.63,-369.18 44.39,-354.11 48.2,-341.39"/>
<path fill="none" stroke="black" d="M48.2,-282.18C57.77,-255.05 87.73,-187.14 109.2,-167.98 141.65,-139.03 205.89,-175.1 200.2,-131.98"/>
</g>
<!-- starlette&#45;&gt;fastapi -->
<g id="edge8" class="edge">
<title>starlette&#45;&gt;fastapi</title><style>.edge>path:hover{stroke-width:8}</style>
<path fill="none" stroke="black" d="M48.2,-282.18C54.26,-265.01 92.07,-235.47 118.65,-216.34"/>
<polygon fill="#2f2fdb" stroke="black" points="120.71,-219.17 126.83,-210.52 116.65,-213.46 120.71,-219.17"/>
</g>
<!-- starlette&#45;&gt;fastapi_applications -->
<g id="edge9" class="edge">
<title>starlette&#45;&gt;fastapi_applications</title><style>.edge>path:hover{stroke-width:8}</style>
<path fill="none" stroke="black" d="M48.2,-340.39C53.04,-324.25 66.22,-312.01 80.28,-303.14"/>
<polygon fill="#2f2fdb" stroke="black" points="82.17,-306.09 89.08,-298.05 78.67,-300.03 82.17,-306.09"/>
</g>
<!-- starlette_middleware -->
<g id="node9" class="node">
<title>starlette_middleware</title><style>.edge>path:hover{stroke-width:8}</style>
<ellipse fill="#4747c2" stroke="black" cx="200.2" cy="-398.61" rx="45.92" ry="21.43"/>
<text text-anchor="middle" x="200.2" y="-401.61" font-family="Helvetica,sans-Serif" font-size="10.00" fill="#ffffff">starlette.</text>
<text text-anchor="middle" x="200.2" y="-390.61" font-family="Helvetica,sans-Serif" font-size="10.00" fill="#ffffff">middleware</text>
</g>
<!-- starlette_middleware&#45;&gt;api_gateway_ctx -->
<g id="edge10" class="edge">
<title>starlette_middleware&#45;&gt;api_gateway_ctx</title><style>.edge>path:hover{stroke-width:8}</style>
<path fill="none" stroke="black" d="M200.2,-340.39C182.03,-279.76 187.15,-259.91 200.2,-197.97"/>
</g>
<!-- starlette_middleware&#45;&gt;fastapi_applications -->
<g id="edge11" class="edge">
<title>starlette_middleware&#45;&gt;fastapi_applications</title><style>.edge>path:hover{stroke-width:8}</style>
<path fill="none" stroke="black" d="M200.2,-340.39C195.36,-324.25 182.18,-312.01 168.12,-303.14"/>
<polygon fill="#4747c2" stroke="black" points="169.73,-300.03 159.32,-298.05 166.22,-306.09 169.73,-300.03"/>
<path fill="none" stroke="black" d="M202.97,-377.43C203.78,-366.54 203.67,-352.98 200.2,-341.39"/>
</g>
<!-- starlette_middleware_cors -->
<g id="node10" class="node">
<title>starlette_middleware_cors</title><style>.edge>path:hover{stroke-width:8}</style>
<ellipse fill="#4c4cb3" stroke="black" cx="438.2" cy="-196.97" rx="48.17" ry="28.98"/>
<text text-anchor="middle" x="438.2" y="-205.47" font-family="Helvetica,sans-Serif" font-size="10.00" fill="#ffffff">starlette.</text>
<text text-anchor="middle" x="438.2" y="-194.47" font-family="Helvetica,sans-Serif" font-size="10.00" fill="#ffffff">middleware.</text>
<text text-anchor="middle" x="438.2" y="-183.47" font-family="Helvetica,sans-Serif" font-size="10.00" fill="#ffffff">cors</text>
</g>
<!-- starlette_middleware_cors&#45;&gt;api_gateway_ctx -->
<g id="edge12" class="edge">
<title>starlette_middleware_cors&#45;&gt;api_gateway_ctx</title><style>.edge>path:hover{stroke-width:8}</style>
<path fill="none" stroke="black" d="M403.23,-177.04C396.08,-173.67 388.51,-170.46 381.2,-167.98 342.35,-154.83 205.57,-172.64 200.2,-131.98"/>
</g>
<!-- uvicorn -->
<g id="node11" class="node">
<title>uvicorn</title><style>.edge>path:hover{stroke-width:8}</style>
<ellipse fill="#c040bf" stroke="black" cx="292.2" cy="-398.61" rx="27.84" ry="18"/>
<text text-anchor="middle" x="292.2" y="-396.11" font-family="Helvetica,sans-Serif" font-size="10.00" fill="#ffffff">uvicorn</text>
</g>
<!-- uvicorn&#45;&gt;api_main -->
<g id="edge13" class="edge">
<title>uvicorn&#45;&gt;api_main</title><style>.edge>path:hover{stroke-width:8}</style>
<path fill="none" stroke="black" d="M292.2,-380.38C292.2,-362.03 292.2,-332.75 292.2,-311.3"/>
<polygon fill="#c040bf" stroke="black" points="295.7,-311.2 292.2,-301.2 288.7,-311.2 295.7,-311.2"/>
</g>
</g>
</svg>
